<svg width="60" height="60" viewBox="0 0 60 60" fill="none" xmlns="http://www.w3.org/2000/svg">
<path d="M30 59.5C46.2924 59.5 59.5 46.2924 59.5 30C59.5 13.7076 46.2924 0.5 30 0.5C13.7076 0.5 0.5 13.7076 0.5 30C0.5 46.2924 13.7076 59.5 30 59.5Z" stroke="#7300BD"/>
<path d="M30 55C43.8071 55 55 43.8071 55 30C55 16.1929 43.8071 5 30 5C16.1929 5 5 16.1929 5 30C5 43.8071 16.1929 55 30 55Z" fill="#7300BD"/>
<path d="M25.3913 38.4102C25.0683 38.0902 25.0393 37.5902 25.3033 37.2402L25.3913 37.1402L32.6803 30.0002L25.3913 22.8602C25.0683 22.5402 25.0393 22.0402 25.3033 21.6902L25.3913 21.5902C25.7143 21.2802 26.2203 21.2502 26.5763 21.5102L26.6783 21.5902L34.6093 29.3702C34.9323 29.6902 34.9613 30.1802 34.6973 30.5302L34.6093 30.6302L26.6783 38.4102C26.3223 38.7502 25.7473 38.7502 25.3913 38.4102Z" fill="white"/>
</svg>
