<svg width="32" height="32" viewBox="0 0 32 32" fill="none" xmlns="http://www.w3.org/2000/svg">
<path d="M16 32C24.8366 32 32 24.8366 32 16C32 7.16344 24.8366 0 16 0C7.16344 0 0 7.16344 0 16C0 24.8366 7.16344 32 16 32Z" fill="white"/>
<path fill-rule="evenodd" clip-rule="evenodd" d="M17.413 15.4899H19.258C19.538 15.4899 19.758 15.2599 19.758 14.9799C19.758 14.6899 19.538 14.4699 19.258 14.4699H17.413C17.133 14.4699 16.914 14.6899 16.914 14.9799C16.914 15.2599 17.133 15.4899 17.413 15.4899ZM21.45 11.9499C21.856 11.9499 22.123 12.0898 22.389 12.4098C22.656 12.7198 22.702 13.17 22.642 13.58L22.01 18.04C21.89 18.9 21.17 19.53 20.324 19.53H13.057C12.171 19.53 11.438 18.8399 11.364 17.9399L10.752 10.52L9.74602 10.35C9.47902 10.3 9.29303 10.0299 9.33903 9.75994C9.38603 9.47994 9.64603 9.30002 9.91903 9.34002L11.508 9.58001C11.734 9.62001 11.901 9.80998 11.921 10.05L12.047 11.57C12.067 11.79 12.24 11.9499 12.454 11.9499H21.45ZM12.95 20.61C12.39 20.61 11.937 21.0698 11.937 21.6398C11.937 22.1998 12.39 22.6699 12.95 22.6699C13.503 22.6699 13.956 22.1998 13.956 21.6398C13.956 21.0698 13.503 20.61 12.95 20.61ZM20.444 20.61C19.884 20.61 19.431 21.0698 19.431 21.6398C19.431 22.1998 19.884 22.6699 20.444 22.6699C20.997 22.6699 21.45 22.1998 21.45 21.6398C21.45 21.0698 20.997 20.61 20.444 20.61Z" fill="#20232B"/>
</svg>
