<svg width="36" height="37" viewBox="0 0 36 37" fill="none" xmlns="http://www.w3.org/2000/svg">
<path d="M16 37C24.8366 37 32 29.8366 32 21C32 12.1634 24.8366 5 16 5C7.16344 5 0 12.1634 0 21C0 29.8366 7.16344 37 16 37Z" fill="white"/>
<path fill-rule="evenodd" clip-rule="evenodd" d="M18.947 17.3101H19.083C20.878 17.3101 22.334 18.8099 22.334 20.6499V24.3301C22.334 26.1701 20.878 27.6699 19.083 27.6699H12.919C11.124 27.6699 9.66797 26.1701 9.66797 24.3301V20.6499C9.66797 18.8099 11.124 17.3101 12.919 17.3101H13.055C13.069 16.5101 13.374 15.77 13.927 15.21C14.486 14.64 15.201 14.3501 16.008 14.3301C17.62 14.3301 18.927 15.6701 18.947 17.3101ZM14.61 15.9199C14.245 16.2899 14.044 16.7901 14.031 17.3101H17.971C17.952 16.2201 17.08 15.3301 16.008 15.3301C15.507 15.3301 14.987 15.5399 14.61 15.9199ZM18.472 19.8799C18.745 19.8799 18.96 19.6499 18.96 19.3799V18.6101C18.96 18.3301 18.745 18.1101 18.472 18.1101C18.205 18.1101 17.984 18.3301 17.984 18.6101V19.3799C17.984 19.6499 18.205 19.8799 18.472 19.8799ZM13.959 19.3799C13.959 19.6499 13.745 19.8799 13.472 19.8799C13.205 19.8799 12.984 19.6499 12.984 19.3799V18.6101C12.984 18.3301 13.205 18.1101 13.472 18.1101C13.745 18.1101 13.959 18.3301 13.959 18.6101V19.3799Z" fill="#20232B"/>
<path d="M28 15C32.1421 15 35.5 11.6421 35.5 7.5C35.5 3.35786 32.1421 0 28 0C23.8579 0 20.5 3.35786 20.5 7.5C20.5 11.6421 23.8579 15 28 15Z" fill="#D20B0B"/>
<path d="M26.9629 5V4.16992H28.6269V10H27.7069V5H26.9629Z" fill="white"/>
</svg>
