<svg width="16" height="16" viewBox="0 0 16 16" fill="none" xmlns="http://www.w3.org/2000/svg">
<path d="M15.042 0C15.479 0 15.833 0.350039 15.833 0.790039V11.8799C15.833 12.3099 15.479 12.6699 15.042 12.6699H3.527L0 15.4399V0.790039C0 0.350039 0.354702 0 0.791702 0H15.042ZM14.25 1.58008H1.5833V12.1799L2.979 11.0801H14.25V1.58008ZM6.741 3.48999L7.095 4.04004C5.774 4.75004 5.797 5.8999 5.797 6.1499C5.92 6.1299 6.049 6.12989 6.177 6.13989C6.891 6.20989 7.454 6.79002 7.454 7.52002C7.454 8.29002 6.834 8.90991 6.069 8.90991C5.644 8.90991 5.238 8.70994 4.981 8.43994C4.573 8.00994 4.354 7.51998 4.354 6.72998C4.354 5.34998 5.326 4.10999 6.741 3.48999ZM10.699 3.48999L11.053 4.04004C9.733 4.75004 9.756 5.8999 9.756 6.1499C9.878 6.1299 10.007 6.12989 10.136 6.13989C10.85 6.20989 11.413 6.79002 11.413 7.52002C11.413 8.29002 10.792 8.90991 10.027 8.90991C9.602 8.90991 9.196 8.70994 8.939 8.43994C8.532 8.00994 8.312 7.51998 8.312 6.72998C8.312 5.34998 9.285 4.10999 10.699 3.48999Z" fill="white"/>
</svg>
