<svg width="20" height="17" viewBox="0 0 20 17" fill="none" xmlns="http://www.w3.org/2000/svg">
<path d="M19 7H18V6C18 5.73 17.895 5.48004 17.707 5.29004C17.52 5.11004 17.265 5 17 5C16.735 5 16.48 5.11004 16.293 5.29004C16.105 5.48004 16 5.73 16 6V7H15C14.735 7 14.48 7.11004 14.293 7.29004C14.105 7.48004 14 7.73 14 8C14 8.27 14.105 8.51996 14.293 8.70996C14.48 8.88996 14.735 9 15 9H16V10C16 10.27 16.105 10.52 16.293 10.71C16.48 10.89 16.735 11 17 11C17.265 11 17.52 10.89 17.707 10.71C17.895 10.52 18 10.27 18 10V9H19C19.265 9 19.52 8.88996 19.707 8.70996C19.895 8.51996 20 8.27 20 8C20 7.73 19.895 7.48004 19.707 7.29004C19.52 7.11004 19.265 7 19 7ZM11.3 8.71997C11.834 8.25997 12.262 7.69005 12.555 7.05005C12.848 6.40005 13 5.71 13 5C13 3.67 12.473 2.39996 11.536 1.45996C10.598 0.529961 9.326 0 8 0C6.674 0 5.40199 0.529961 4.46399 1.45996C3.52699 2.39996 3 3.67 3 5C3 5.71 3.15201 6.40005 3.44501 7.05005C3.73801 7.69005 4.16601 8.25997 4.70001 8.71997C3.30001 9.34997 2.11199 10.3799 1.27899 11.6699C0.444992 12.9599 0.001 14.46 0 16C0 16.27 0.104999 16.52 0.292999 16.71C0.479999 16.89 0.735 17 1 17C1.265 17 1.52 16.89 1.707 16.71C1.895 16.52 2 16.27 2 16C2 14.41 2.63199 12.88 3.75699 11.76C4.88299 10.63 6.409 10 8 10C9.591 10 11.117 10.63 12.243 11.76C13.368 12.88 14 14.41 14 16C14 16.27 14.105 16.52 14.293 16.71C14.48 16.89 14.735 17 15 17C15.265 17 15.52 16.89 15.707 16.71C15.895 16.52 16 16.27 16 16C15.999 14.46 15.555 12.9599 14.721 11.6699C13.888 10.3799 12.7 9.34997 11.3 8.71997ZM8 8C7.407 8 6.82701 7.81999 6.33301 7.48999C5.84001 7.15999 5.455 6.6999 5.228 6.1499C5.001 5.5999 4.94201 4.99991 5.05801 4.40991C5.17301 3.82991 5.459 3.29988 5.879 2.87988C6.298 2.45988 6.83301 2.17006 7.41501 2.06006C7.99701 1.94006 8.60001 1.99998 9.14801 2.22998C9.69601 2.45998 10.165 2.84008 10.494 3.33008C10.824 3.83008 11 4.41 11 5C11 5.8 10.684 6.56012 10.121 7.12012C9.559 7.68012 8.796 8 8 8Z" fill="#5F5F5F"/>
</svg>
