<svg width="18" height="17" viewBox="0 0 18 17" fill="none" xmlns="http://www.w3.org/2000/svg">
<path d="M13.458 4.75H17.417V6.33008H13.458V4.75ZM11.875 8.70996H17.417V10.29H11.875V8.70996ZM14.25 12.6699H17.417V14.25H14.25V12.6699ZM0 16.6201C0 14.9501 0.667303 13.3299 1.855 12.1499C3.043 10.9599 4.654 10.29 6.333 10.29C8.013 10.29 9.624 10.9599 10.812 12.1499C11.999 13.3299 12.667 14.9501 12.667 16.6201H11.083C11.083 15.3701 10.583 14.16 9.692 13.27C8.801 12.38 7.593 11.8799 6.333 11.8799C5.074 11.8799 3.865 12.38 2.9746 13.27C2.0838 14.16 1.5833 15.3701 1.5833 16.6201H0ZM6.333 9.5C3.709 9.5 1.5833 7.37 1.5833 4.75C1.5833 2.13 3.709 0 6.333 0C8.958 0 11.083 2.13 11.083 4.75C11.083 7.37 8.958 9.5 6.333 9.5ZM6.333 7.91992C8.083 7.91992 9.5 6.5 9.5 4.75C9.5 3 8.083 1.58008 6.333 1.58008C4.584 1.58008 3.167 3 3.167 4.75C3.167 6.5 4.584 7.91992 6.333 7.91992Z" fill="white"/>
</svg>
