<svg width="16" height="20" viewBox="0 0 16 20" fill="none" xmlns="http://www.w3.org/2000/svg">
<path d="M11 12H5C4.735 12 4.48 12.11 4.293 12.29C4.105 12.48 4 12.73 4 13C4 13.27 4.105 13.52 4.293 13.71C4.48 13.89 4.735 14 5 14H11C11.265 14 11.52 13.89 11.707 13.71C11.895 13.52 12 13.27 12 13C12 12.73 11.895 12.48 11.707 12.29C11.52 12.11 11.265 12 11 12ZM11 8H7C6.735 8 6.48 8.11004 6.293 8.29004C6.105 8.48004 6 8.73 6 9C6 9.27 6.105 9.51996 6.293 9.70996C6.48 9.88996 6.735 10 7 10H11C11.265 10 11.52 9.88996 11.707 9.70996C11.895 9.51996 12 9.27 12 9C12 8.73 11.895 8.48004 11.707 8.29004C11.52 8.11004 11.265 8 11 8ZM13 2H11.82C11.614 1.42 11.232 0.910049 10.727 0.550049C10.222 0.190049 9.619 0 9 0H7C6.381 0 5.77801 0.190049 5.27301 0.550049C4.76801 0.910049 4.38599 1.42 4.17999 2H3C2.204 2 1.441 2.31988 0.878998 2.87988C0.315998 3.43988 0 4.2 0 5V17C0 17.8 0.315998 18.5601 0.878998 19.1201C1.441 19.6801 2.204 20 3 20H13C13.796 20 14.559 19.6801 15.121 19.1201C15.684 18.5601 16 17.8 16 17V5C16 4.2 15.684 3.43988 15.121 2.87988C14.559 2.31988 13.796 2 13 2ZM6 3C6 2.73 6.105 2.48004 6.293 2.29004C6.48 2.11004 6.735 2 7 2H9C9.265 2 9.52 2.11004 9.707 2.29004C9.895 2.48004 10 2.73 10 3V4H6V3ZM14 17C14 17.27 13.895 17.52 13.707 17.71C13.52 17.89 13.265 18 13 18H3C2.735 18 2.48 17.89 2.293 17.71C2.105 17.52 2 17.27 2 17V5C2 4.73 2.105 4.48004 2.293 4.29004C2.48 4.11004 2.735 4 3 4H4V5C4 5.27 4.105 5.51996 4.293 5.70996C4.48 5.88996 4.735 6 5 6H11C11.265 6 11.52 5.88996 11.707 5.70996C11.895 5.51996 12 5.27 12 5V4H13C13.265 4 13.52 4.11004 13.707 4.29004C13.895 4.48004 14 4.73 14 5V17Z" fill="#5F5F5F"/>
</svg>
