<svg width="20" height="20" viewBox="0 0 20 20" fill="none" xmlns="http://www.w3.org/2000/svg">
<path d="M19.6573 8.25L10.6574 0.25C10.4749 0.09 10.2403 0 9.99744 0C9.75454 0 9.51994 0.09 9.33744 0.25L0.337444 8.25C0.184544 8.39 0.0766395 8.55977 0.0283395 8.75977C-0.0199605 8.95977 -0.00625981 9.16986 0.0674402 9.35986C0.13994 9.54986 0.267544 9.70982 0.433544 9.81982C0.599444 9.93982 0.796041 10 0.997441 10H1.99744V19C1.99744 19.27 2.10284 19.52 2.29034 19.71C2.47784 19.89 2.73224 20 2.99744 20H16.9974C17.2626 20 17.517 19.89 17.7045 19.71C17.8921 19.52 17.9973 19.27 17.9973 19V10H18.9973C19.1993 10 19.3953 9.93982 19.5613 9.81982C19.7273 9.70982 19.8553 9.54986 19.9273 9.35986C20.0013 9.16986 20.0143 8.95977 19.9663 8.75977C19.9183 8.55977 19.8103 8.39 19.6573 8.25ZM10.9974 18H8.99744V15C8.99744 14.73 9.10284 14.48 9.29034 14.29C9.47784 14.11 9.73224 14 9.99744 14C10.2626 14 10.517 14.11 10.7045 14.29C10.8921 14.48 10.9974 14.73 10.9974 15V18ZM15.9974 18H12.9974V15C12.9974 14.2 12.6813 13.4399 12.1187 12.8799C11.5561 12.3199 10.7931 12 9.99744 12C9.20184 12 8.43874 12.3199 7.87614 12.8799C7.31354 13.4399 6.99744 14.2 6.99744 15V18H3.99744V10H15.9974V18ZM3.62744 8L9.99744 2.33984L16.3674 8H3.62744Z" fill="#5F5F5F"/>
</svg>
