<svg width="21" height="19" viewBox="0 0 21 19" fill="none" xmlns="http://www.w3.org/2000/svg">
<path d="M16.5 8L20.9 19H18.745L17.544 16H13.454L12.255 19H10.101L14.5 8H16.5ZM8 0V2H14V4H12.032C11.261 6.32 10.029 8.47005 8.412 10.3C9.133 10.94 9.916 11.52 10.748 12.01L9.997 13.8899C8.923 13.2799 7.918 12.55 7 11.73C5.214 13.34 3.098 14.55 0.799004 15.27L0.263 13.3401C2.2328 12.7201 4.048 11.68 5.59 10.3C4.4487 9.01005 3.4981 7.56 2.767 6H5.007C5.564 7.03 6.233 7.98988 7 8.87988C8.25 7.43988 9.235 5.79 9.91 4H0V2H6V0H8ZM15.5 10.8899L14.253 14H16.745L15.5 10.8899Z" fill="white"/>
</svg>
