<svg width="20" height="20" viewBox="0 0 20 20" fill="none" xmlns="http://www.w3.org/2000/svg">
<path d="M10 4C9.735 4 9.48 4.11004 9.293 4.29004C9.105 4.48004 9 4.73 9 5V15C9 15.27 9.105 15.52 9.293 15.71C9.48 15.89 9.735 16 10 16C10.265 16 10.52 15.89 10.707 15.71C10.895 15.52 11 15.27 11 15V5C11 4.73 10.895 4.48004 10.707 4.29004C10.52 4.11004 10.265 4 10 4ZM5 10C4.735 10 4.48 10.11 4.293 10.29C4.105 10.48 4 10.73 4 11V15C4 15.27 4.105 15.52 4.293 15.71C4.48 15.89 4.735 16 5 16C5.265 16 5.52 15.89 5.707 15.71C5.895 15.52 6 15.27 6 15V11C6 10.73 5.895 10.48 5.707 10.29C5.52 10.11 5.265 10 5 10ZM15 8C14.735 8 14.48 8.11004 14.293 8.29004C14.105 8.48004 14 8.73 14 9V15C14 15.27 14.105 15.52 14.293 15.71C14.48 15.89 14.735 16 15 16C15.265 16 15.52 15.89 15.707 15.71C15.895 15.52 16 15.27 16 15V9C16 8.73 15.895 8.48004 15.707 8.29004C15.52 8.11004 15.265 8 15 8ZM17 0H3C2.204 0 1.441 0.319883 0.878998 0.879883C0.315998 1.43988 0 2.2 0 3V17C0 17.8 0.315998 18.5601 0.878998 19.1201C1.441 19.6801 2.204 20 3 20H17C17.796 20 18.559 19.6801 19.121 19.1201C19.684 18.5601 20 17.8 20 17V3C20 2.2 19.684 1.43988 19.121 0.879883C18.559 0.319883 17.796 0 17 0ZM18 17C18 17.27 17.895 17.52 17.707 17.71C17.52 17.89 17.265 18 17 18H3C2.735 18 2.48 17.89 2.293 17.71C2.105 17.52 2 17.27 2 17V3C2 2.73 2.105 2.48004 2.293 2.29004C2.48 2.11004 2.735 2 3 2H17C17.265 2 17.52 2.11004 17.707 2.29004C17.895 2.48004 18 2.73 18 3V17Z" fill="#5F5F5F"/>
</svg>
