<svg width="19" height="19" viewBox="0 0 19 19" fill="none" xmlns="http://www.w3.org/2000/svg">
<path d="M17.1 13.5701H19V15.3799H0V13.5701H1.9V7.23999C1.9 5.31999 2.7007 3.48012 4.126 2.12012C5.5513 0.760117 7.484 0 9.5 0C11.516 0 13.449 0.760117 14.874 2.12012C16.299 3.48012 17.1 5.31999 17.1 7.23999V13.5701ZM15.2 13.5701V7.23999C15.2 5.79999 14.599 4.4199 13.531 3.3999C12.462 2.3799 11.012 1.81006 9.5 1.81006C7.988 1.81006 6.538 2.3799 5.4695 3.3999C4.4005 4.4199 3.8 5.79999 3.8 7.23999V13.5701H15.2ZM6.65 17.1899H12.35V19H6.65V17.1899Z" fill="white"/>
</svg>
