<svg width="15" height="17" viewBox="0 0 15 17" fill="none" xmlns="http://www.w3.org/2000/svg">
<path d="M2.375 5.54004V4.75C2.375 3.49 2.8754 2.27989 3.766 1.38989C4.657 0.499893 5.865 0 7.125 0C8.385 0 9.593 0.499893 10.484 1.38989C11.375 2.27989 11.875 3.49 11.875 4.75V5.54004H13.458C13.668 5.54004 13.87 5.63002 14.018 5.77002C14.167 5.92002 14.25 6.12008 14.25 6.33008V15.8301C14.25 16.0401 14.167 16.2399 14.018 16.3899C13.87 16.5399 13.668 16.6201 13.458 16.6201H0.791702C0.581702 16.6201 0.380303 16.5399 0.231903 16.3899C0.0834031 16.2399 0 16.0401 0 15.8301V6.33008C0 6.12008 0.0834031 5.92002 0.231903 5.77002C0.380303 5.63002 0.581702 5.54004 0.791702 5.54004H2.375ZM12.667 7.12012H1.5833V15.04H12.667V7.12012ZM6.333 11.6599C6.031 11.4899 5.796 11.2199 5.662 10.8999C5.529 10.5799 5.505 10.2199 5.596 9.87988C5.686 9.54988 5.885 9.25004 6.161 9.04004C6.438 8.82004 6.776 8.70996 7.125 8.70996C7.474 8.70996 7.812 8.82004 8.089 9.04004C8.365 9.25004 8.564 9.54988 8.654 9.87988C8.745 10.2199 8.721 10.5799 8.588 10.8999C8.454 11.2199 8.219 11.4899 7.917 11.6599V13.46H6.333V11.6599ZM3.958 5.54004H10.292V4.75C10.292 3.91 9.958 3.10001 9.364 2.51001C8.77 1.92001 7.965 1.58008 7.125 1.58008C6.285 1.58008 5.48 1.92001 4.886 2.51001C4.292 3.10001 3.958 3.91 3.958 4.75V5.54004Z" fill="white"/>
</svg>
