<svg width="19" height="19" viewBox="0 0 19 19" fill="none" xmlns="http://www.w3.org/2000/svg">
<path d="M9.49999 0C7.65399 0 5.84879 0.540049 4.30429 1.55005C2.75979 2.56005 1.54279 3.99994 0.801391 5.68994C0.0599912 7.37994 -0.173806 9.25007 0.128494 11.0701C0.430894 12.8901 1.2563 14.5799 2.5042 15.9399C3.3955 16.8999 4.47729 17.67 5.68129 18.2C6.88499 18.73 8.18599 19 9.49999 19C10.814 19 12.115 18.73 13.319 18.2C14.523 17.67 15.604 16.8999 16.496 15.9399C17.744 14.5799 18.569 12.8901 18.871 11.0701C19.174 9.25007 18.94 7.37994 18.199 5.68994C17.457 3.99994 16.24 2.56005 14.696 1.55005C13.151 0.540049 11.346 0 9.49999 0ZM9.49999 17.1201C7.52799 17.1101 5.63459 16.35 4.21749 14.98C4.64769 13.93 5.37969 13.0399 6.31999 12.4099C7.26099 11.7799 8.36799 11.4399 9.49999 11.4399C10.632 11.4399 11.739 11.7799 12.68 12.4099C13.62 13.0399 14.352 13.93 14.783 14.98C13.365 16.35 11.472 17.1101 9.49999 17.1201ZM7.59599 7.61011C7.59599 7.23011 7.70799 6.86005 7.91699 6.55005C8.12599 6.24005 8.424 5.9901 8.772 5.8501C9.119 5.7101 9.50199 5.66999 9.87099 5.73999C10.241 5.81999 10.58 6.00001 10.846 6.26001C11.112 6.53001 11.294 6.86999 11.367 7.23999C11.44 7.60999 11.403 7.99009 11.259 8.34009C11.115 8.68009 10.871 8.97994 10.558 9.18994C10.245 9.39994 9.87699 9.51001 9.49999 9.51001C8.99499 9.51001 8.51099 9.30995 8.15399 8.94995C7.79699 8.59995 7.59599 8.11011 7.59599 7.61011ZM16.077 13.3101C15.227 11.8601 13.918 10.7301 12.355 10.1001C12.84 9.5501 13.156 8.8699 13.265 8.1499C13.374 7.4299 13.272 6.69002 12.97 6.02002C12.669 5.35002 12.181 4.77989 11.565 4.38989C10.95 3.98989 10.233 3.78003 9.49999 3.78003C8.76699 3.78003 8.04999 3.98989 7.43499 4.38989C6.81899 4.77989 6.33099 5.35002 6.02999 6.02002C5.72849 6.69002 5.62609 7.4299 5.73519 8.1499C5.84419 8.8699 6.15999 9.5501 6.64499 10.1001C5.08229 10.7301 3.77339 11.8601 2.92299 13.3101C2.24529 12.1601 1.88719 10.85 1.88549 9.51001C1.88549 7.49001 2.68779 5.55988 4.11579 4.12988C5.54379 2.69988 7.48099 1.8999 9.49999 1.8999C11.519 1.8999 13.456 2.69988 14.884 4.12988C16.312 5.55988 17.114 7.49001 17.114 9.51001C17.113 10.85 16.755 12.1601 16.077 13.3101Z" fill="white"/>
</svg>
