<svg width="32" height="32" viewBox="0 0 32 32" fill="none" xmlns="http://www.w3.org/2000/svg">
<path d="M16 32C24.8366 32 32 24.8366 32 16C32 7.16344 24.8366 0 16 0C7.16344 0 0 7.16344 0 16C0 24.8366 7.16344 32 16 32Z" fill="white"/>
<path fill-rule="evenodd" clip-rule="evenodd" d="M13.475 10.1699H18.533C20.51 10.1699 21.834 11.5501 21.834 13.6201V18.3899C21.834 20.4399 20.51 21.8301 18.533 21.8301H13.475C11.498 21.8301 10.168 20.4399 10.168 18.3899V13.6201C10.168 11.5501 11.498 10.1699 13.475 10.1699ZM15.669 17.74L18.439 14.97C18.638 14.77 18.638 14.45 18.439 14.25C18.241 14.05 17.914 14.05 17.716 14.25L15.307 16.6599L14.286 15.6399C14.088 15.4399 13.761 15.4399 13.563 15.6399C13.364 15.8399 13.364 16.1601 13.563 16.3601L14.951 17.74C15.05 17.84 15.179 17.8899 15.307 17.8899C15.441 17.8899 15.569 17.84 15.669 17.74Z" fill="#20232B"/>
</svg>
